<?xml version="1.0" encoding="UTF-8" standalone="no"?>
<svg width="72px" height="72px" viewBox="0 0 72 72" version="1.1" xmlns="http://www.w3.org/2000/svg" xmlns:xlink="http://www.w3.org/1999/xlink">
    <!-- Generator: Sketch 45.1 (43504) - http://www.bohemiancoding.com/sketch -->
    <title>Group 2</title>
    <desc>Created with Sketch.</desc>
    <defs></defs>
    <g id="Page-1" stroke="none" stroke-width="1" fill="none" fill-rule="evenodd">
        <g id="Group-2" fill-rule="nonzero" fill="#FFFFFF">
            <path d="M36,0 C16.1,0 0,16.1 0,36 C0,55.9 16.1,72 36,72 C55.9,72 72,55.9 72,36 C72,16.1 55.9,0 36,0 Z M36,66 C19.5,66 6,52.5 6,36 C6,19.5 19.5,6 36,6 C52.5,6 66,19.5 66,36 C66,52.5 52.5,66 36,66 Z" id="Shape"></path>
            <path d="M28,20 C26.3,20 25,21.3 25,23 L25,49 C25,50.7 26.3,52 28,52 C29.7,52 31,50.7 31,49 L31,23 C31,21.3 29.7,20 28,20 Z" id="Shape"></path>
            <path d="M44,20 C42.3,20 41,21.3 41,23 L41,49 C41,50.7 42.3,52 44,52 C45.7,52 47,50.7 47,49 L47,23 C47,21.3 45.7,20 44,20 Z" id="Shape"></path>
        </g>
    </g>
</svg>