<?xml version="1.0" encoding="UTF-8" standalone="no"?>
<svg width="72px" height="72px" viewBox="0 0 72 72" version="1.1" xmlns="http://www.w3.org/2000/svg" xmlns:xlink="http://www.w3.org/1999/xlink">
    <!-- Generator: Sketch 45.1 (43504) - http://www.bohemiancoding.com/sketch -->
    <title>Group</title>
    <desc>Created with Sketch.</desc>
    <defs></defs>
    <g id="Page-1" stroke="none" stroke-width="1" fill="none" fill-rule="evenodd">
        <g id="Group" fill-rule="nonzero" fill="#FFFFFF">
            <path d="M36,66.8571429 C53.0419294,66.8571429 66.8571429,53.0419294 66.8571429,36 C66.8571429,18.9580706 53.0419294,5.14285714 36,5.14285714 C18.9580706,5.14285714 5.14285714,18.9580706 5.14285714,36 C5.14285714,53.0419294 18.9580706,66.8571429 36,66.8571429 Z M36,72 C16.117749,72 0,55.882251 0,36 C0,16.117749 16.117749,0 36,0 C55.882251,0 72,16.117749 72,36 C72,55.882251 55.882251,72 36,72 Z M48.1506295,33.6249535 C50.6736944,34.936092 50.6578212,37.0701162 48.1506295,38.3730061 L31.5684134,46.9901366 C29.0453485,48.3012751 27,47.085147 27,44.2102793 L27,27.78768 C27,24.9412689 29.0612217,23.7049331 31.5684134,25.0078229 L48.1506295,33.6249535 Z" id="Shape"></path>
        </g>
    </g>
</svg>